<?xml version="1.0" encoding="UTF-8"?>
<svg xmlns="http://www.w3.org/2000/svg" viewBox="0 0 1095 1095" width="1095" height="1095">
<path d="M569 89.9C558.33 89.89 547.67 89.88 537 89.87C539.3 87.92 542.35 88.51 545.5 88.51C551.3 88.51 564.57 86.94 569 89.9ZM526.92 90.27C524.61 90.47 522.31 90.66 520 90.86C520.17 90.41 520.33 89.96 520.5 89.51C522.64 89.77 524.78 90.02 526.92 90.27ZM576.91 90.32C579.77 90.05 582.64 89.78 585.5 89.51C585.67 89.96 585.83 90.4 586 90.85C582.97 90.67 579.94 90.5 576.91 90.32ZM511.86 91.29C509.91 91.47 507.95 91.64 506 91.81C506.17 91.11 506.33 90.4 506.5 89.7C509.36 90.4 508.01 90.04 510.5 89.7C510.95 90.23 511.41 90.76 511.86 91.29ZM501.99 92.29C500.33 92.45 498.66 92.61 497 92.78C497.83 92.08 498.67 91.39 499.5 90.7C500.33 91.23 501.16 91.76 501.99 92.29ZM729.17 749.02C729.31 746.51 729.46 744.01 729.6 741.5C735.08 740.25 740.8 743.06 746.5 743.36C761.27 744.13 776.15 744.55 790.87 745.05C791.58 744.98 792.29 744.92 793 744.85C799.06 744.69 805.02 744.41 810.78 742.34C826.13 736.83 832.79 722.16 832.53 706.55C832.18 685.22 822.89 664.47 809.03 648.48C770.33 603.86 702.64 600.44 650.89 621.43C632.58 628.86 612.68 640.31 602.27 657.75C597.91 665.04 594.3 673.8 597.24 682.3C598.6 686.23 601.74 688.74 604.23 691.86C605.1 692.56 605.82 692.68 607.07 693.36C608.01 693.88 608.82 695.19 609.66 695.89C612.37 698.16 615.49 700.19 618.53 701.98C629.26 708.34 640.43 713.55 651.65 718.88C658.83 722.28 667.1 723.57 674.05 727.5C672.94 730.33 671.93 732.84 669 733.99C660.32 730.65 651.63 727.32 642.95 723.99C639.99 722.6 637.04 721.22 634.08 719.84C629.72 717.48 625.35 715.12 620.98 712.76C618.15 711.82 615.73 709.98 613.05 708.45C602.44 702.39 588.78 694.58 586.31 681.36C584.04 669.13 589.23 655.72 596.63 646.14C598.61 643.57 601.24 641.4 603.26 639.12C610.91 630.14 622.86 623.85 633.35 618.83C652.91 609.46 673.93 603.6 695.5 601.2C704.63 600.19 713.76 600.67 722.84 599.98C736.65 601.48 748.66 604.36 762 607.84C769.37 611.22 776.74 614.61 784.11 618C792.28 624.03 800.46 630.05 808.64 636.08C811.54 640.21 815.63 643.7 818.87 647.66C822.33 651.88 824.84 656.66 828.04 661.02C834.98 674.79 840.49 688.37 841.33 704C841.63 712.42 840.96 721.16 837.45 728.94C835.59 733.06 832.4 736.43 830.71 740.5C841.81 742.2 852.9 743.89 864 745.59C879.17 749.4 894.33 753.22 909.5 757.04C917.6 746.54 923.44 733.57 929.21 721.69C942.49 694.32 954.26 664.2 958.95 634C962.63 621.78 966.61 595.5 966 582.93C966.41 576.25 966.81 569.58 967.22 562.9C967.17 554.57 967.12 546.24 967.07 537.9C967.08 536.26 967.08 534.61 967.09 532.97C966.71 527.81 966.32 522.66 965.94 517.5C958.95 516.53 951.56 516.93 944.5 516.92C926.79 516.88 909.06 517.84 891.45 519.63C857.3 523.12 823.51 528.57 790.4 537.78C777.62 541.33 764.17 544.41 751.87 549.43C746.74 551.53 742.38 556.26 737.46 558.99C727.33 564.6 716.36 568.4 705.31 571.73C688.16 576.89 670.14 580.39 652.39 582.63C643.53 583.74 634.47 583.99 625.67 585.37C614.39 587.12 603.22 591.96 592.2 594.93C591.64 590.3 591.07 585.67 590.5 581.03C616.91 579.16 643.74 575.68 669.78 570.4C676.81 568.98 683.62 566.84 690.57 565.17C693.65 564.43 696.37 564.95 699.04 563.22C708.22 561.37 717.17 558.26 725.6 554.14C731.1 551.45 736.63 547.78 741.1 543.58C768.36 517.95 750.59 473.07 734.52 445.98C699.27 386.53 633.33 346.08 564.5 341.85C486.68 337.07 406.03 373.05 358.09 434.65C343.08 453.94 330.9 476.95 328.02 501.5C325.69 521.31 329.61 537.25 347.46 548.02C353.11 551.43 358.72 553.56 365.07 555.27C372.08 556.65 378.74 559.76 385.72 561.67C404.18 566.7 422.77 572.13 441.57 575.74C451.25 577.6 460.8 580.17 470.51 581.83C476.48 582.84 488.23 583.84 493.12 586.5C492.01 590.28 490.9 594.07 489.79 597.85C486.05 599.73 482.32 601.62 478.59 603.5C480.86 606.67 483.14 609.84 485.42 613.01C493.77 631.23 498.88 646.09 485.75 664.26C482.71 668.48 479.12 672.28 475.26 675.76C473.33 677.51 470.85 678.63 469.89 680.85C462.6 685.89 455.31 690.93 448.02 695.98C438.63 700.95 429.23 705.92 419.84 710.9C416.54 712.12 413.23 713.34 409.93 714.57C409.02 711.88 408.12 709.19 407.21 706.5C410.82 702.69 416.55 702.87 421.16 700.61C434.26 694.18 447.09 687.19 458.3 677.82C459.89 676.49 461.51 674.71 463.42 673.84C464.52 673.34 466.32 673.47 467.15 672.52C468.4 671.11 466.69 672.65 467.55 671.09C470.95 669.23 474.15 666.15 476.66 663.19C493.93 642.84 480.64 618.96 462.94 604.54C430.12 577.78 384.77 566.97 343.74 578.34C303.76 589.43 269.46 618.35 254.88 657.46C248.47 674.65 245.72 700.96 260.57 714.93C266.91 720.89 274.32 723.19 282.61 725C286.02 726.9 293.01 724.58 297.5 724.6C313.61 724.65 329.5 722.19 345.5 720.59C346.35 724.41 346.28 728.24 344.86 731.99C306.1 731.44 265.98 738.09 229.39 750.82C214.52 756 199.33 761.46 185.73 769.5C187.25 774.83 191.24 779.58 194.32 784.21C201.88 795.54 210.28 806.07 218.92 816.59C241.02 843.51 266.75 868.95 294.57 889.96C310.17 901.73 326.21 912.62 342.42 923.5C336.72 923.33 320.64 912.98 315.1 909.41C294.5 896.16 274.54 882.61 256.04 866.47C203.96 821.03 160.53 763.82 137.25 698.28C121.22 653.15 113.23 605.31 111.89 557.5C110.37 502.86 117.6 448.21 136.23 396.69C172.09 297.54 249.94 211.75 344.01 164.51C408.43 132.17 481.47 115.81 553.5 116.31C603.59 116.65 654.21 125 701.3 142.25C814.17 183.61 909.76 277.64 952.39 390.17C975.25 450.52 984.03 516.2 979.17 580.5C970.79 691.48 913.49 794.08 829.54 866.02C810.56 882.29 789.8 896.22 768.09 908.57C762.54 911.72 756.88 914.75 751.21 917.67C749.44 918.59 746.44 920.83 744.45 920.93C743.85 920.96 743.31 920.54 742.71 920.5C789.39 893.52 830.9 858.35 866.03 817.54C875 807.12 883.7 796.36 891.59 785.1C894.88 780.39 898.77 775.8 900.97 770.5C888.8 764.52 874.27 762.15 861.08 759.47C824.85 752.11 791.85 753.65 755.5 751.64C746.66 751.15 737.95 749.9 729.17 749.02ZM549.5 148.99C540.94 149.41 540.7 157.51 539.68 164.46C537.27 180.92 537.52 197.89 538.01 214.5C538.19 220.55 537.99 232.48 546.48 233.05C556.01 233.68 556.16 221.08 556.68 214.5C557.95 198.47 557.7 181.52 555.68 165.56C554.95 159.75 554.94 152.33 549.5 148.99ZM681.5 176.18C673.91 175.13 669.24 182.06 665.25 187.74C655.92 201.04 648.33 216.13 642.83 231.39C641.03 236.37 634.98 250.58 641.85 253.59C649.27 256.85 655.09 246.87 658.15 241.65C666.82 226.84 673.57 211.12 679.56 195.07C681.63 189.51 686.09 181.3 681.5 176.18ZM414.5 177.74C411.26 182.97 414.79 190.57 416.48 196.03C421.25 211.55 427.39 226.97 435.37 241.15C438.24 246.25 443.43 257.21 450.88 254.4C459.46 251.16 453.81 239.46 451.91 233.55C446.78 217.61 439.28 202.19 430.6 187.9C427.16 182.22 421.89 174.87 414.5 177.74ZM304.7 241.29C294.64 243.69 304.42 255 307.53 258.95C318.81 273.29 331.34 287.41 345.2 299.32C350.14 303.57 357.85 311.05 364.24 304.75C370.24 298.83 361 289.93 357.29 285.23C346.87 272.08 334.31 260.75 321.53 249.97C317.1 246.23 311.12 239.77 304.7 241.29ZM783.74 241.32C777.97 242.74 773.1 248.55 768.76 252.28C756.73 262.62 745.24 273.4 735.1 285.64C731.49 290 721.92 299.74 728.21 305.29C733.98 310.39 742.01 302.27 746.17 298.65C760.54 286.14 774.94 272.14 786.44 256.91C789.15 253.32 794.75 246.57 790.15 242.36C788.36 240.72 785.96 240.77 783.74 241.32ZM785.4 451.5C777.67 386.86 731.36 319.19 675.92 285.58C648.23 268.8 616.3 257.33 584.3 252.39C544.19 246.22 507.72 251.82 469.44 263.87C404.08 284.45 354.21 327.17 324.56 389.09C318.8 401.12 314.43 413.5 310.69 426.28C308.28 434.53 305.43 443.88 305.97 452.5C314.51 453.5 323.05 454.5 331.59 455.5C335.94 451.07 338.98 445.18 342.57 440.1C346.94 433.91 351.7 427.9 356.62 422.15C379.3 395.63 407.03 372.82 437.82 356.35C457.62 345.76 479.45 338.13 501.45 333.75C526.77 328.71 552.74 326.89 578.44 330.31C653.09 340.26 714.67 391.4 750.5 455.8C762.13 454.37 773.77 452.93 785.4 451.5ZM310.97 371.5C311.5 364.26 304.38 361.08 298.98 357.5C284.98 348.23 268.84 341.03 253.04 335.47C248.08 333.72 235.24 328.31 231.85 334.4C228.8 339.89 242.45 347.11 246.18 349.35C260.73 358.1 276.3 365.32 292.12 371.43C298.18 373.77 306.13 377.65 310.97 371.5ZM856.66 335.5C852.73 328.27 841.88 333.1 835.87 335.41C820.85 341.17 805.61 348.72 792.33 357.84C787.09 361.43 780.67 364.48 780.93 371.5C785.71 378.62 795.35 373.52 801.59 370.99C816.49 364.95 830.67 357.36 844.18 348.66C849.14 345.47 856.22 341.84 856.66 335.5ZM964.1 494.95C964.07 494.68 964.04 494.4 964.01 494.13C963.94 492.59 963.87 491.04 963.8 489.5C960.51 486.7 955.45 485.62 951.36 484.2C942.2 481.02 933.02 478.26 923.68 475.68C885.06 465.06 844.59 459.63 804.5 460.83C793.01 461.17 781.46 462.02 770.06 463.51C765.64 464.08 759.62 464.06 755.92 466.5C761.59 481.26 765.65 496.51 764.77 512.5C764.41 519.08 762.19 525.14 761.16 531.5C769.62 530.42 778.24 527.19 786.59 525.24C800.93 521.89 815.45 519.03 830 516.75C874.38 509.83 919.6 505.46 964.56 506.5C965.5 502.83 965.55 498.49 964.1 494.95ZM325.34 467.5C320.01 465.77 314.1 465.69 308.5 465.29C297.48 464.49 286.56 464.06 275.5 464.07C242.81 464.09 210.05 468.3 178.22 475.58C166.74 478.21 155.52 481.25 144.24 484.63C138.81 486.26 132.89 487.66 127.95 490.5C127.39 497.83 126.83 505.17 126.27 512.5C130.64 512.89 135.1 512.39 139.5 512.35C147.83 512.29 156.18 512.39 164.5 512.66C192.95 513.57 221.16 516.04 249.27 520.42C265.37 522.92 281.57 525.83 297.36 529.94C304.81 531.88 313.59 535.84 321.21 535.5C318.93 527.77 316.53 520.67 316.22 512.5C315.62 496.51 321.44 482.56 325.34 467.5ZM508 468.44C508.33 468.79 508.67 469.15 509 469.5C507.5 469.67 506 469.83 504.5 470C504.33 469.67 504.17 469.34 504 469C505.33 468.82 506.67 468.63 508 468.44ZM569.88 467.73C572.11 467.83 574.34 467.94 576.57 468.05C576.54 468.37 576.52 468.68 576.5 469C574 468.83 571.5 468.67 569 468.5C569.29 468.24 569.58 467.98 569.88 467.73ZM588 468.43C589.33 468.63 590.67 468.83 592 469.03C591.83 469.35 591.67 469.68 591.5 470C589.33 469.83 587.17 469.67 585 469.5C586 469.14 587 468.78 588 468.43ZM85.72 495C85.57 496.63 85.43 498.26 85.28 499.89C85.19 498.43 85.09 496.96 85 495.5C85.24 495.33 85.48 495.17 85.72 495ZM1006.05 497C1006.53 497.17 1007.01 497.33 1007.49 497.5C1007.21 499.05 1006.94 500.61 1006.67 502.16C1006.46 500.44 1006.26 498.72 1006.05 497ZM84.77 505C84.62 507.68 84.47 510.36 84.32 513.04C84.21 510.53 84.11 508.01 84 505.5C84.26 505.33 84.52 505.17 84.77 505ZM124.92 539.99C124.93 543.65 124.94 547.3 124.96 550.96C125.28 560.01 125.6 569.07 125.93 578.12C126.56 584.78 127.2 591.43 127.84 598.09C127.52 610.12 130.72 622.71 132.78 634.54C134.55 644.68 136.12 655.48 139.72 665.15C142.7 684.39 152.38 706.34 160.41 724.1C164.77 733.74 169.18 744.47 175.5 752.99C185.19 749.2 194.88 745.41 204.57 741.63C218.78 737.46 233 733.3 247.22 729.14C251.38 727.93 255.55 726.71 259.71 725.5C247.11 715.23 240.14 702.02 239.89 685.5C239.78 678.16 241.24 671.3 242.04 664.1C243.86 660.14 244.49 655.64 246.07 651.53C248.61 644.89 252.2 638.71 255.16 632.34C260.44 625.22 265.72 618.11 271 610.99C279.06 604 287.12 597.01 295.18 590.02C304.12 585.12 313.06 580.22 322 575.32C328.59 573.64 334.85 570.74 341.55 569.22C345.52 568.31 351.33 568.13 354.02 565.5C344.16 560.09 333.32 556.4 322.75 552.68C292.62 542.07 261.19 535.58 229.53 531.74C204.24 528.66 179.02 526.33 153.5 525.8C144.21 525.61 134.77 525.14 125.5 525.82C125.31 530.54 125.11 535.27 124.92 539.99ZM84.31 572.01C84.49 575.01 84.66 578 84.83 581C84.39 580.83 83.95 580.67 83.51 580.5C83.24 578.17 82.97 575.83 82.7 573.5C83.24 573 83.78 572.51 84.31 572.01ZM605.92 688.6C606.28 688.57 606.64 688.53 607 688.5C607 689.5 607 690.5 607 691.5C606.32 691.56 605.63 691.63 604.95 691.69C605.17 690.63 605.39 689.56 605.61 688.5C605.71 688.53 605.82 688.57 605.92 688.6ZM587 996.2C586.83 996.47 586.67 996.73 586.5 997C584.95 996.89 583.39 996.78 581.84 996.67C583.56 996.51 585.28 996.36 587 996.2ZM484 997.16C486.66 997.34 489.33 997.51 491.99 997.69C489.49 997.79 487 997.9 484.5 998C484.33 997.72 484.17 997.44 484 997.16ZM576 997.15C575.83 997.43 575.67 997.72 575.5 998C573.35 997.9 571.2 997.79 569.05 997.69C571.36 997.51 573.68 997.33 576 997.15Z" fill="#fefefe" fill-rule="evenodd" stroke="#fefefe" stroke-width="0.25" stroke-linejoin="round"/>
<path d="M526.92 90.27C530.28 90.14 533.64 90.01 537 89.87C547.67 89.88 558.33 89.89 569 89.9C571.64 90.04 574.27 90.18 576.91 90.32C579.94 90.5 582.97 90.67 586 90.85C600.44 92.72 615.05 93.67 629.39 96.32C664.99 102.89 699.96 112.97 733.21 127.35C827.99 168.34 909.93 245.79 957.33 337.26C969.62 360.97 981.51 385.86 988.77 411.67C993.51 428.52 998.23 445.32 1001.3 462.61C1003.33 474.01 1004.5 485.56 1006.05 497C1006.26 498.72 1006.46 500.44 1006.67 502.16C1006.56 511.58 1007.81 521.05 1008.05 530.5C1008.38 544.18 1007.78 557.86 1007.74 571.5C1007.71 582.37 1005.67 593.77 1004.2 604.52C1001.65 623.17 998.7 641.86 993.46 659.95C985.65 686.91 976.06 712.94 963.72 738.2C916.75 834.33 826.48 921.38 726.84 961.37C698.38 972.79 669.33 981.34 639.48 988.02C622.12 991.9 604.4 992.83 587 996.2C585.28 996.36 583.56 996.51 581.84 996.67C579.89 996.83 577.95 996.99 576 997.15C573.68 997.33 571.36 997.51 569.05 997.69C560.52 997.76 552.02 998.65 543.5 998.81C526.28 999.12 509.17 998.42 491.99 997.69C489.33 997.51 486.66 997.34 484 997.16C474.03 995.69 463.95 994.87 454.03 993.45C421.36 988.79 382.74 977.66 352.73 963.71C246.15 914.15 167.82 831.91 119.34 725.23C104.35 692.26 93.66 648.65 88.53 612.88C87.01 602.28 86.37 591.59 84.83 581C84.66 578 84.49 575.01 84.31 572.01C84.31 552.35 84.32 532.7 84.32 513.04C84.47 510.36 84.62 507.68 84.77 505C84.94 503.3 85.11 501.59 85.28 499.89C85.43 498.26 85.57 496.63 85.72 495C87.95 482.61 88.77 469.97 91.25 457.6C96.75 430.13 104.35 403.37 114.75 377.32C158.79 267.04 248.67 176.95 357.22 129.7C387.38 116.57 419.32 106.53 451.53 100.08C466.6 97.06 481.94 95.65 497 92.78C498.66 92.61 500.33 92.45 501.99 92.29C503.33 92.13 504.66 91.97 506 91.81C507.95 91.64 509.91 91.47 511.86 91.29C514.58 91.15 517.29 91 520 90.86C522.31 90.66 524.61 90.47 526.92 90.27ZM344.86 731.99C346.06 739.93 344.71 748.49 344.26 756.5C343.09 777.44 341.13 801.68 351.87 820.65C355.29 826.71 366.26 840.91 373.55 841.69C380.48 842.43 394.99 837.87 401.8 835.5C402.42 828.2 399.53 820.2 397.38 813.21C394.71 804.51 391.76 795.8 387.98 787.51C385.38 781.82 382.2 776.33 379.97 770.5C386.72 771.16 393.79 776.4 399.1 780.42C416.67 793.72 421.92 809.87 434.5 826.3C436.64 821.66 436.74 816.58 437.23 811.5C438.33 800.22 440.18 784.2 435.93 773.54C430.35 759.55 420.88 747.47 416.14 733C420.01 730.35 421.79 725.3 426.5 724.46C426.72 722.39 427.29 719.9 426.49 717.85C424.96 713.9 421.68 717.16 423.3 711.5C422.15 711.3 420.99 711.1 419.84 710.9C429.23 705.92 438.63 700.95 448.02 695.98C447.85 697.59 447.67 699.19 447.5 700.8C448.8 703.03 449.82 705.82 452.52 705.5C452.45 705.91 452.05 707.11 452.2 707.5C452.6 708.53 454.02 708.83 454.67 709.79C456.38 712.36 456.32 715.23 458.96 717C454.52 742.3 448.29 766.6 451.74 792.53C453.08 802.61 455.73 814.92 462.5 822.86C485.97 822.83 508.36 825.03 531.23 830.41C541.05 832.71 551.99 838.23 561.55 839.5C549.12 828.83 535.81 820.04 525.61 806.87C506.82 782.62 502.04 753.48 500.94 723.5C500.59 714.09 499.03 703.94 500.5 694.66C508.07 696.95 515.16 700.7 522.13 704.38C552.6 720.43 575.81 745.73 586.83 778.63C590.73 790.28 593.27 802.41 594.63 814.6C595.47 822.14 595.41 829.82 596.5 837.3C601.44 822.96 604.96 808.43 612.64 795.15C615.65 789.94 618.91 784.9 622.67 780.19C624.44 777.98 628.2 775.15 629.01 772.44C631.08 765.46 626.96 745.14 626.14 737C628.37 736 628.03 737.56 628.61 739.5C631.9 735.83 635.19 732.17 638.47 728.5C640.43 729.2 641.78 727.6 643.5 726.68C642.2 725.23 640.72 725.71 642.95 723.99C651.63 727.32 660.32 730.65 669 733.99C668.39 738.31 664.95 742.38 662.48 745.97C656.66 754.41 649.87 762.05 643.72 770.23C631.11 787 622.33 817.46 626.5 838.09C630.22 833.81 632.48 828.1 636.02 823.54C646.74 809.75 660.72 799.15 677.48 793.97C682.81 792.32 688.51 790.66 694.06 791.5C691.14 795.22 687.62 798.44 684.53 802.03C673.64 814.67 662.36 829.79 659.09 846.5C668.38 848.2 679.01 846.99 688.5 846.99C691.94 847 697 847.93 700.23 846.64C702.05 845.91 703.87 843.08 705.05 841.57C709.3 836.11 712.67 830.09 715.21 823.68C722.15 806.12 724.45 787.09 726.67 768.45C727.44 761.99 727.64 755.34 729.17 749.02C737.95 749.9 746.66 751.15 755.5 751.64C791.85 753.65 824.85 752.11 861.08 759.47C874.27 762.15 888.8 764.52 900.97 770.5C898.77 775.8 894.88 780.39 891.59 785.1C883.7 796.36 875 807.12 866.03 817.54C830.9 858.35 789.39 893.52 742.71 920.5C743.31 920.54 743.85 920.96 744.45 920.93C746.44 920.83 749.44 918.59 751.21 917.67C756.88 914.75 762.54 911.72 768.09 908.57C789.8 896.22 810.56 882.29 829.54 866.02C913.49 794.08 970.79 691.48 979.17 580.5C984.03 516.2 975.25 450.52 952.39 390.17C909.76 277.64 814.17 183.61 701.3 142.25C654.21 125 603.59 116.65 553.5 116.31C481.47 115.81 408.43 132.17 344.01 164.51C249.94 211.75 172.09 297.54 136.23 396.69C117.6 448.21 110.37 502.86 111.89 557.5C113.23 605.31 121.22 653.15 137.25 698.28C160.53 763.82 203.96 821.03 256.04 866.47C274.54 882.61 294.5 896.16 315.1 909.41C320.64 912.98 336.72 923.33 342.42 923.5C326.21 912.62 310.17 901.73 294.57 889.96C266.75 868.95 241.02 843.51 218.92 816.59C210.28 806.07 201.88 795.54 194.32 784.21C191.24 779.58 187.25 774.83 185.73 769.5C199.33 761.46 214.52 756 229.39 750.82C265.98 738.09 306.1 731.44 344.86 731.99ZM620.98 712.76C625.35 715.12 629.72 717.48 634.08 719.84C631.02 721.93 629.48 724.39 628.5 728C626.32 727.13 626.69 727.4 625.5 729.48C625.1 728.98 624.7 728.49 624.29 728C623.19 722.92 622.09 717.84 620.98 712.76ZM410.8 717.23C410.6 716.82 410.41 716.41 410.21 716C411.64 715.67 413.07 715.33 414.5 715C414.17 717.67 413.77 716.94 410.8 717.23ZM526.5 741.12C527.04 744.52 530.15 747.54 532.02 750.48C536.3 757.21 540.66 763.94 544.63 770.85C556.69 791.83 567.47 814.03 575.5 836.89C577.28 828.09 573.72 816.91 571.08 808.47C563.93 785.66 546.61 754.9 526.5 741.12ZM343.5 851.54C346.96 844.26 347.8 836.49 346.92 828.5C342.92 791.86 304.04 770.24 270.51 767.65C261.96 767 245.97 765.93 238.59 770.5C253.39 779.32 267.7 789.53 277.43 804.08C285.71 816.46 290.52 830.94 300.18 842.38C307.95 851.6 322.09 858.41 334.06 854.5C332.49 850.23 330.18 846.44 328.03 842.45C313.77 815.98 295.64 797.66 271.27 780.5C278.46 779.17 287.86 784.91 294.02 788.48C309.19 797.3 321.9 810.73 330.47 826.02C333 830.54 335.55 835.05 337.73 839.76C339.58 843.74 340.7 848.28 343.5 851.54ZM820.89 775.5C812.53 773.46 802.86 774.71 794.35 775.58C754.98 779.61 709.43 807.62 719.5 853.41C724.92 847.61 728.41 839.22 733.08 832.63C743.9 817.39 758.23 803.78 775.21 795.7C780.6 793.13 786.89 789.59 792.93 789.5C787.69 794.9 781.83 799.68 776.56 805.06C767.06 814.77 758.83 825.38 750.94 836.41C747.51 841.21 738.85 852.61 738.5 858.03C742.86 857.92 747.28 857.26 751.46 855.95C776.61 848.03 780.34 826.17 793.12 806.69C800.91 794.81 811.37 785.84 820.89 775.5Z" fill="#323f1f" fill-rule="evenodd" stroke="#323f1f" stroke-width="0.25" stroke-linejoin="round"/>
<path d="M502.98 373.94C504.97 374.08 506.96 374.22 508.95 374.36C489.33 383.89 473.19 393.51 455.02 405.51C438.45 416.47 423.87 430.18 408.08 442.12C407.73 441.43 407.37 440.73 407.01 440.03C416.74 422.35 432.25 406.67 448.9 395.41C455.2 391.16 462.29 385.8 469.66 383.75C470.94 383.52 472.22 383.3 473.5 383.07C473.68 382.67 473.87 382.28 474.05 381.88C482.55 377.4 493.42 374.66 502.98 373.94ZM530 467.27C530.17 467.52 530.33 467.76 530.5 468C532.17 467.96 533.83 467.92 535.5 467.87C535.67 467.64 535.83 467.4 536 467.17C544 467.17 552 467.17 560 467.17C560.17 467.41 560.33 467.65 560.5 467.89C561.83 467.92 563.17 467.96 564.5 468C564.67 467.76 564.83 467.52 565 467.28C566.63 467.43 568.25 467.58 569.88 467.73C569.58 467.98 569.29 468.24 569 468.5C571.5 468.67 574 468.83 576.5 469C576.52 468.68 576.54 468.37 576.57 468.05C580.38 468.17 584.19 468.3 588 468.43C587 468.78 586 469.14 585 469.5C587.17 469.67 589.33 469.83 591.5 470C591.67 469.68 591.83 469.35 592 469.03C604.36 468.36 617.4 470.93 629.62 472.65C656.18 476.38 684.18 482.36 707.73 495.76C721.96 503.86 738.76 516.63 732.73 535.29C729.48 545.31 718.77 552.78 709.88 557.4C706.33 559.24 701.97 560.7 699.04 563.22C696.37 564.95 693.65 564.43 690.57 565.17C683.62 566.84 676.81 568.98 669.78 570.4C643.74 575.68 616.91 579.16 590.5 581.03C591.07 585.67 591.64 590.3 592.2 594.93C593.32 605.47 596.47 616.2 598.86 626.54C599.8 630.58 599.95 636.7 603.26 639.12C601.24 641.4 598.61 643.57 596.63 646.14C589.23 655.72 584.04 669.13 586.31 681.36C588.78 694.58 602.44 702.39 613.05 708.45C615.73 709.98 618.15 711.82 620.98 712.76C622.09 717.84 623.19 722.92 624.29 728C624.91 731 625.53 734 626.14 737C626.96 745.14 631.08 765.46 629.01 772.44C628.2 775.15 624.44 777.98 622.67 780.19C618.91 784.9 615.65 789.94 612.64 795.15C604.96 808.43 601.44 822.96 596.5 837.3C595.41 829.82 595.47 822.14 594.63 814.6C593.27 802.41 590.73 790.28 586.83 778.63C575.81 745.73 552.6 720.43 522.13 704.38C515.16 700.7 508.07 696.95 500.5 694.66C499.03 703.94 500.59 714.09 500.94 723.5C502.04 753.48 506.82 782.62 525.61 806.87C535.81 820.04 549.12 828.83 561.55 839.5C551.99 838.23 541.05 832.71 531.23 830.41C508.36 825.03 485.97 822.83 462.5 822.86C455.73 814.92 453.08 802.61 451.74 792.53C448.29 766.6 454.52 742.3 458.96 717C462.6 704.95 466.25 692.9 469.89 680.85C470.85 678.63 473.33 677.51 475.26 675.76C479.12 672.28 482.71 668.48 485.75 664.26C498.88 646.09 493.77 631.23 485.42 613.01C486.87 607.96 488.33 602.9 489.79 597.85C490.9 594.07 492.01 590.28 493.12 586.5C488.23 583.84 476.48 582.84 470.51 581.83C460.8 580.17 451.25 577.6 441.57 575.74C422.77 572.13 404.18 566.7 385.72 561.67C378.74 559.76 372.08 556.65 365.07 555.27C363.63 553.13 361.49 551.76 359.5 550C353.1 544.35 348.2 537.41 348.38 528.52C348.7 513.01 368.96 500.7 381.35 494.81C407.23 482.49 435.45 476.98 463.6 472.76C475.84 470.93 491.81 468.26 504 469C504.17 469.34 504.33 469.67 504.5 470C506 469.83 507.5 469.67 509 469.5C508.67 469.15 508.33 468.79 508 468.44C515.33 468.05 522.67 467.66 530 467.27ZM547.5 478.45C544.08 478.45 540.65 478.45 537.23 478.45C536.32 490.04 535.41 501.64 534.5 513.23C520.64 510.75 511.6 493.19 507.38 481.18C504.41 481.18 501.44 481.18 498.48 481.18C498.41 497.02 505.7 503.74 511.93 516.5C500.02 514.5 488.49 505.81 480.43 497.07C476.85 493.18 474.11 488.57 470.5 484.74C468.17 485.26 465.83 485.78 463.5 486.3C465.46 501.71 478.5 513.56 489.98 522.5C484.15 523.1 477.82 520.2 472.37 518.15C460.53 513.67 449.77 506.57 440.2 498.32C437.92 496.35 435.92 494.16 433.5 492.33C431.11 493.06 428.73 493.78 426.34 494.5C433.48 511.91 457.74 524.19 474.65 529.5C468.22 530.86 460.92 529.14 454.5 528.03C441.71 525.83 429.02 522.89 417.2 517.33C409.5 513.7 402.87 508.57 395.5 504.5C393.72 505.5 391.93 506.5 390.15 507.5C392.84 514.49 401.26 519.29 407.41 523.04C424.77 533.62 445.35 536.92 465.02 540.5C458.77 542.27 451.94 541.31 445.5 541.17C428.62 540.81 411.87 538.05 395.45 534.22C389.08 532.73 382.89 530.7 376.67 528.73C373.66 527.78 371.5 526.34 368.5 527.53C368.25 535.51 381.42 539.45 387.72 541.74C401.99 546.92 417.39 549.62 432.5 550.87C441.01 551.58 449.83 551.31 458.24 552.5C451.07 556.9 440.74 557.57 432.5 557.94C428.11 558.13 423.07 557.18 419.5 559.49C430.5 564.79 445.51 565.82 457.5 564.76C464.24 564.16 472.34 561.39 478.87 562.5C475.77 565.83 472.67 569.17 469.58 572.5C477.48 575.04 487.3 574.46 495.61 574.5C499.66 568.35 501.81 551.04 503.52 543.05C504.36 539.11 504.68 535.14 507.62 532.13C511.67 527.99 516.93 526.24 522.36 524.75C536.46 520.88 563.52 518.94 574.19 531.29C581.12 539.32 582.19 551.46 584.25 561.44C585.54 567.69 587.84 573.94 588.5 580.23C588.56 579.18 588.24 576.54 588.89 575.72C589.89 574.47 593.02 574.89 594.46 574.72C599.53 574.11 604.94 573.75 609.86 572.5C607.3 569.17 604.74 565.83 602.18 562.5C606.53 561.79 619 564.36 624.5 564.79C636.38 565.72 650.36 564.08 661.42 559.5C657.68 557.46 652.8 558.25 648.5 558C639.75 557.5 628.08 556.68 620.73 551.5C645.39 550.39 671.05 550.76 694.58 542.16C700.69 539.93 716.04 534.45 713.5 526.2C706.43 526.87 699.3 530.88 692.37 532.74C676.74 536.94 660.69 538.89 644.63 540.4C634.95 541.32 623.29 542.83 613.8 540.5C634.84 535.56 655.68 533.41 674.67 522.16C681.37 518.19 690.9 512.29 693.17 504.5C691.61 503.76 690.06 503.01 688.5 502.27C683 504.77 678.38 509.56 672.92 512.42C658.3 520.05 642.68 524.26 626.54 527.23C619.82 528.47 612.42 530.14 605.63 529.5C625.85 522.78 648.54 512.31 658.83 492.5C656.83 490.5 654.4 490.18 651.5 489.76C637.06 502.53 627.68 509.61 609.45 516.9C604.3 518.96 596.59 522.63 591.34 521.5C603.16 512.91 617.32 498.47 619.81 483.54C617.37 483.54 614.94 483.54 612.5 483.54C610.13 485.74 608.21 488.9 605.92 491.4C598.59 499.41 583.97 514.57 572.62 514.5C578.39 503.99 582.69 491.85 583.04 479.83C580.09 479.83 577.14 479.83 574.18 479.83C572.03 482.29 571.03 486.05 569.7 489.24C566.16 497.72 560.89 509.65 551.5 512.81C550.17 501.35 548.83 489.9 547.5 478.45ZM311.02 616C311.65 616.31 312.29 616.63 312.92 616.94C299.45 636.88 285.97 656.81 272.5 676.75C272.47 670.23 275.05 664.04 277.58 658.1C284.1 642.74 295.98 624.29 311.02 616ZM467.55 671.09C466.69 672.65 468.4 671.11 467.15 672.52C466.32 673.47 464.52 673.34 463.42 673.84C461.51 674.71 459.89 676.49 458.3 677.82C447.09 687.19 434.26 694.18 421.16 700.61C416.55 702.87 410.82 702.69 407.21 706.5C408.12 709.19 409.02 711.88 409.93 714.57C410.02 715.04 410.12 715.52 410.21 716C410.41 716.41 410.6 716.82 410.8 717.23C412.58 722.49 414.36 727.74 416.14 733C420.88 747.47 430.35 759.55 435.93 773.54C440.18 784.2 438.33 800.22 437.23 811.5C436.74 816.58 436.64 821.66 434.5 826.3C421.92 809.87 416.67 793.72 399.1 780.42C393.79 776.4 386.72 771.16 379.97 770.5C382.2 776.33 385.38 781.82 387.98 787.51C391.76 795.8 394.71 804.51 397.38 813.21C399.53 820.2 402.42 828.2 401.8 835.5C394.99 837.87 380.48 842.43 373.55 841.69C366.26 840.91 355.29 826.71 351.87 820.65C341.13 801.68 343.09 777.44 344.26 756.5C344.71 748.49 346.06 739.93 344.86 731.99C346.28 728.24 346.35 724.41 345.5 720.59C329.5 722.19 313.61 724.65 297.5 724.6C293.01 724.58 286.02 726.9 282.61 725C283.36 724.03 283.96 724.77 282.87 723.5C280.57 722.63 278.17 721.79 276.12 720.39C269.81 716.11 269.81 708.2 273.63 702.15C279.66 692.59 290.58 686.18 300.04 680.54C334.18 660.2 386.99 644.77 426.5 642.06C437.11 641.33 448.24 640.76 458.57 643.81C463.35 645.23 468.84 647.57 471.2 652.33C475.24 660.48 467.78 664.59 467.55 671.09ZM445.56 650.5C439.54 647.97 436.01 652.52 431.28 655.8C423.84 660.96 408.12 671.99 399.71 673.5C406.17 666.53 412.22 660.54 415.84 651.5C405.75 648.99 403.33 657.69 397.46 663.96C394.74 666.85 391.15 668.77 388.24 671.12C388.24 665.91 388.24 660.71 388.24 655.5C385.39 656.17 382.55 656.83 379.7 657.5C377.95 663.61 377.75 669.87 372.5 674.19C368.25 671.44 367.6 665.71 365.07 661.5C362.2 662.17 359.32 662.83 356.45 663.5C357.46 668.41 358.48 673.32 359.5 678.23C353.2 676.99 348.06 673.53 343.5 669.12C341.09 669.92 338.68 670.71 336.27 671.5C338.2 676.17 342.81 679.46 346.76 682.5C342.05 684.02 335.41 682.52 330.69 680.77C328.09 679.8 325.4 677.73 322.53 677.98C320.65 678.14 318.61 679.59 317.02 680.5C322.11 685.73 330.28 687.52 337.1 689.5C331.28 693.05 317.42 690.62 310.53 689.72C307.97 689.39 305.11 688.46 302.53 688.92C300.9 689.22 299.54 690.49 298.31 691.5C303.69 696.88 321.24 695.48 328.82 697.5C319.01 699.18 309.47 700.29 299.5 700.29C294.88 700.29 290.18 698.88 286.79 702.5C289.79 705.14 294.4 704.92 298.5 704.97C306.9 705.06 315.72 703.54 324.02 704.5C311.08 709.43 296.51 708.31 283.18 711.5C285.37 714.05 288.97 713.91 292.5 713.85C300.03 713.72 307.41 711.55 314.88 711.5C308.43 716.85 298.63 716.77 291.36 720.5C303.01 722.87 315.9 716.15 326.56 712.16C329.48 711.07 332.25 709.61 335.28 709.5C330.67 713.17 326.05 716.83 321.44 720.5C328.11 720.87 332.47 716.43 338.5 715.4C337.26 722.05 345.23 718.07 346.48 715.07C349.09 708.83 346.49 700.92 349.21 694.69C351.06 690.45 356.71 687.16 360.67 685.18C370.14 680.45 389.73 675.85 397.88 684.64C402.72 689.85 403.38 697.11 406.5 703.16C412.29 700.94 418.07 698.72 423.86 696.5C420.56 695.17 417.26 693.83 413.96 692.5C416.34 690.56 420.01 690.41 423.24 689.63C430.81 687.78 439 685.64 445.06 680.5C436.18 680.27 426.71 685.12 418.01 682.5C429.71 678.78 440.98 674.5 451.46 667.98C454.44 666.13 461.09 662.38 459.96 658.5C455.62 658.51 451.56 662.31 447.61 664.14C438.64 668.29 421.83 676.74 412.26 676.5C423.22 667.93 438.45 663.47 445.56 650.5ZM795.03 743.14C792.78 743.29 792.22 743.34 790.87 745.05C776.15 744.55 761.27 744.13 746.5 743.36C740.8 743.06 735.08 740.25 729.6 741.5C729.46 744.01 729.31 746.51 729.17 749.02C727.64 755.34 727.44 761.99 726.67 768.45C724.45 787.09 722.15 806.12 715.21 823.68C712.67 830.09 709.3 836.11 705.05 841.57C703.87 843.08 702.05 845.91 700.23 846.64C697 847.93 691.94 847 688.5 846.99C679.01 846.99 668.38 848.2 659.09 846.5C662.36 829.79 673.64 814.67 684.53 802.03C687.62 798.44 691.14 795.22 694.06 791.5C688.51 790.66 682.81 792.32 677.48 793.97C660.72 799.15 646.74 809.75 636.02 823.54C632.48 828.1 630.22 833.81 626.5 838.09C622.33 817.46 631.11 787 643.72 770.23C649.87 762.05 656.66 754.41 662.48 745.97C664.95 742.38 668.39 738.31 669 733.99C671.93 732.84 672.94 730.33 674.05 727.5C667.1 723.57 658.83 722.28 651.65 718.88C640.43 713.55 629.26 708.34 618.53 701.98C615.49 700.19 612.37 698.16 609.66 695.89C608.82 695.19 608.01 693.88 607.07 693.36C605.82 692.68 605.1 692.56 604.23 691.86C604.47 691.8 604.71 691.74 604.95 691.69C605.63 691.63 606.32 691.56 607 691.5C607 690.5 607 689.5 607 688.5C606.64 688.53 606.28 688.57 605.92 688.6C607.23 682.1 612.67 678.51 618.54 676.1C629.26 671.7 641.02 670.89 652.5 670.91C695.37 671 746.38 681.86 784.48 702.08C794.53 707.41 819.54 722.25 807.62 736.17C806.2 737.83 804.43 738.96 802.56 740.03C800.12 741.45 797.77 742.48 795.03 743.14ZM682.05 697.5C675.39 697.2 663.68 687.55 658.14 683.38C656.57 682.2 655.04 680.11 653.2 679.38C650.91 678.49 648.83 679.03 646.57 679.5C650.4 688.7 661.22 695.22 669.27 700.5C660.09 699.98 649.23 694.63 641.13 690.38C636.58 688 632.4 683.85 627.14 685.5C627.83 689.56 631.48 691.34 634.91 693.57C643.42 699.12 652.93 702.37 662.17 706.5C650.55 707.02 639.87 701.78 628.5 701.39C638.1 711.07 656.96 711.66 669.44 714.5C665.88 717.23 661.59 717.73 657.21 718.5C663.64 720.43 670.07 722.36 676.5 724.29C679.91 719.61 684.26 710.49 689.06 707.55C698.43 701.8 723.66 707.3 729 717.53C732.24 723.72 729.16 731.7 730.5 738.24C735.24 739 739.99 739.75 744.73 740.5C743.23 737.83 741.73 735.17 740.24 732.5C749.51 733.98 758.03 738.62 767.5 739.92C771.28 740.44 775.54 741.4 778.94 739.5C769.8 736.83 760.65 734.75 752.05 730.5C764.14 728.71 783.6 739.47 796.3 732.5C783.37 730.5 770.43 728.5 757.5 726.5C768.68 723.93 781.21 727.91 792.01 722.5C788.81 720.08 783.52 721.39 779.5 721.38C770.99 721.37 756.01 722.34 748.5 718.54C760.72 716.65 771.34 717.29 782.88 711.5C778.28 706.93 773.92 709.63 768.24 710.59C761.33 711.77 748.31 713.93 742.11 711.5C749.91 709.7 758.78 707.44 764.52 701.5C760.19 697.32 756.04 699.94 751.35 701.82C745.69 704.08 739.27 706.53 733.15 705.5C737.04 701.36 742.03 698.61 744.85 693.5C742.4 692.69 739.95 691.87 737.5 691.06C732.63 695.34 728.05 701.65 720.96 701.5C722.17 696.22 723.38 690.93 724.59 685.65C721.9 685.65 719.2 685.65 716.5 685.65C714.8 690.22 713.27 695.62 709.5 698.89C704.42 694.57 704.07 687.96 702.62 681.85C700.15 681.85 697.68 681.85 695.21 681.85C695.21 686.91 695.21 691.97 695.21 697.04C688.8 691.82 683.66 687.17 680.5 679.3C677.75 679.3 675.01 679.3 672.26 679.3C673.47 686.75 677.55 691.73 682.05 697.5ZM526.5 741.12C546.61 754.9 563.93 785.66 571.08 808.47C573.72 816.91 577.28 828.09 575.5 836.89C567.47 814.03 556.69 791.83 544.63 770.85C540.66 763.94 536.3 757.21 532.02 750.48C530.15 747.54 527.04 744.52 526.5 741.12Z" fill="#f3e7d7" fill-rule="evenodd" stroke="#f3e7d7" stroke-width="0.25" stroke-linejoin="round"/>
<path d="M699.04 563.22C701.97 560.7 706.33 559.24 709.88 557.4C718.77 552.78 729.48 545.31 732.73 535.29C738.76 516.63 721.96 503.86 707.73 495.76C684.18 482.36 656.18 476.38 629.62 472.65C617.4 470.93 604.36 468.36 592 469.03C590.67 468.83 589.33 468.63 588 468.43C584.19 468.3 580.38 468.17 576.57 468.05C574.34 467.94 572.11 467.83 569.88 467.73C568.25 467.58 566.63 467.43 565 467.28C563.33 467.24 561.67 467.21 560 467.17C552 467.17 544 467.17 536 467.17C534 467.2 532 467.24 530 467.27C522.67 467.66 515.33 468.05 508 468.44C506.67 468.63 505.33 468.82 504 469C491.81 468.26 475.84 470.93 463.6 472.76C435.45 476.98 407.23 482.49 381.35 494.81C368.96 500.7 348.7 513.01 348.38 528.52C348.2 537.41 353.1 544.35 359.5 550C361.49 551.76 363.63 553.13 365.07 555.27C358.72 553.56 353.11 551.43 347.46 548.02C329.61 537.25 325.69 521.31 328.02 501.5C330.9 476.95 343.08 453.94 358.09 434.65C406.03 373.05 486.68 337.07 564.5 341.85C633.33 346.08 699.27 386.53 734.52 445.98C750.59 473.07 768.36 517.95 741.1 543.58C736.63 547.78 731.1 551.45 725.6 554.14C717.17 558.26 708.22 561.37 699.04 563.22ZM502.98 373.94C493.42 374.66 482.55 377.4 474.05 381.88C472.59 382.51 471.13 383.13 469.66 383.75C462.29 385.8 455.2 391.16 448.9 395.41C432.25 406.67 416.74 422.35 407.01 440.03C405.16 441.86 405.4 442.29 405.5 444.79C406.36 443.9 407.22 443.01 408.08 442.12C423.87 430.18 438.45 416.47 455.02 405.51C473.19 393.51 489.33 383.89 508.95 374.36C509.73 374.07 510.51 373.79 511.28 373.5C508.52 373.65 505.75 373.8 502.98 373.94ZM467.55 671.09C467.78 664.59 475.24 660.48 471.2 652.33C468.84 647.57 463.35 645.23 458.57 643.81C448.24 640.76 437.11 641.33 426.5 642.06C386.99 644.77 334.18 660.2 300.04 680.54C290.58 686.18 279.66 692.59 273.63 702.15C269.81 708.2 269.81 716.11 276.12 720.39C278.17 721.79 280.57 722.63 282.87 723.5C283.96 724.77 283.36 724.03 282.61 725C274.32 723.19 266.91 720.89 260.57 714.93C245.72 700.96 248.47 674.65 254.88 657.46C269.46 618.35 303.76 589.43 343.74 578.34C384.77 566.97 430.12 577.78 462.94 604.54C480.64 618.96 493.93 642.84 476.66 663.19C474.15 666.15 470.95 669.23 467.55 671.09ZM793 744.85C793.68 744.28 794.35 743.71 795.03 743.14C797.77 742.48 800.12 741.45 802.56 740.03C804.43 738.96 806.2 737.83 807.62 736.17C819.54 722.25 794.53 707.41 784.48 702.08C746.38 681.86 695.37 671 652.5 670.91C641.02 670.89 629.26 671.7 618.54 676.1C612.67 678.51 607.23 682.1 605.92 688.6C605.82 688.57 605.71 688.53 605.61 688.5C605.39 689.56 605.17 690.63 604.95 691.69C604.71 691.74 604.47 691.8 604.23 691.86C601.74 688.74 598.6 686.23 597.24 682.3C594.3 673.8 597.91 665.04 602.27 657.75C612.68 640.31 632.58 628.86 650.89 621.43C702.64 600.44 770.33 603.86 809.03 648.48C822.89 664.47 832.18 685.22 832.53 706.55C832.79 722.16 826.13 736.83 810.78 742.34C805.02 744.41 799.06 744.69 793 744.85ZM311.02 616C295.98 624.29 284.1 642.74 277.58 658.1C275.05 664.04 272.47 670.23 272.5 676.75C285.97 656.81 299.45 636.88 312.92 616.94C313.78 615.6 314.64 614.26 315.5 612.92C314.01 613.95 312.51 614.97 311.02 616Z" fill="#68432d" fill-rule="evenodd" stroke="#68432d" stroke-width="0.25" stroke-linejoin="round"/>
<path d="M964.01 494.13C963.78 494.25 963.55 494.38 963.32 494.5C963.38 496.18 963.44 497.87 963.5 499.55C963.7 498.02 963.9 496.49 964.1 494.95C965.55 498.49 965.5 502.83 964.56 506.5C919.6 505.46 874.38 509.83 830 516.75C815.45 519.03 800.93 521.89 786.59 525.24C778.24 527.19 769.62 530.42 761.16 531.5C762.19 525.14 764.41 519.08 764.77 512.5C765.65 496.51 761.59 481.26 755.92 466.5C759.62 464.06 765.64 464.08 770.06 463.51C781.46 462.02 793.01 461.17 804.5 460.83C844.59 459.63 885.06 465.06 923.68 475.68C933.02 478.26 942.2 481.02 951.36 484.2C955.45 485.62 960.51 486.7 963.8 489.5C963.87 491.04 963.94 492.59 964.01 494.13ZM325.34 467.5C321.44 482.56 315.62 496.51 316.22 512.5C316.53 520.67 318.93 527.77 321.21 535.5C313.59 535.84 304.81 531.88 297.36 529.94C281.57 525.83 265.37 522.92 249.27 520.42C221.16 516.04 192.95 513.57 164.5 512.66C156.18 512.39 147.83 512.29 139.5 512.35C135.1 512.39 130.64 512.89 126.27 512.5C126.83 505.17 127.39 497.83 127.95 490.5C132.89 487.66 138.81 486.26 144.24 484.63C155.52 481.25 166.74 478.21 178.22 475.58C210.05 468.3 242.81 464.09 275.5 464.07C286.56 464.06 297.48 464.49 308.5 465.29C314.1 465.69 320.01 465.77 325.34 467.5ZM967.09 532.97C961.12 533.01 954.85 535.73 949.21 537.65C940.97 540.46 932.68 543 924.5 546.02C889.65 558.87 855.4 574.01 823.33 592.85C814.53 598.01 805.76 603.14 797.17 608.65C792.94 611.37 787.24 614.1 784.11 618C776.74 614.61 769.37 611.22 762 607.84C763.53 604.35 769.11 601.96 772.41 599.94C781.34 594.46 790.37 589.12 799.52 584.01C827.35 568.46 856.33 554.55 885.77 542.31C896.4 537.89 907.31 534.06 917.86 529.5C912.09 528.38 905.19 530.67 899.4 531.71C888.34 533.71 877.2 535.78 866.37 538.76C829.66 548.85 793.63 561.79 759.72 579.25C751.18 583.65 742.65 588.05 734.3 592.8C730.38 595.02 725.94 596.81 722.84 599.98C713.76 600.67 704.63 600.19 695.5 601.2C673.93 603.6 652.91 609.46 633.35 618.83C622.86 623.85 610.91 630.14 603.26 639.12C599.95 636.7 599.8 630.58 598.86 626.54C596.47 616.2 593.32 605.47 592.2 594.93C603.22 591.96 614.39 587.12 625.67 585.37C634.47 583.99 643.53 583.74 652.39 582.63C670.14 580.39 688.16 576.89 705.31 571.73C716.36 568.4 727.33 564.6 737.46 558.99C742.38 556.26 746.74 551.53 751.87 549.43C764.17 544.41 777.62 541.33 790.4 537.78C823.51 528.57 857.3 523.12 891.45 519.63C909.06 517.84 926.79 516.88 944.5 516.92C951.56 516.93 958.95 516.53 965.94 517.5C966.32 522.66 966.71 527.81 967.09 532.97ZM322 575.32C286.81 557.88 250.22 542.66 211.51 534.93C201.1 532.86 182.44 527.86 172.5 529.27C177.67 532.22 184.61 533.33 190.35 535.21C196.39 537.19 202.62 539.57 208.47 542.05C233.84 552.83 258.85 565.34 281.7 580.82C286.18 583.86 291.05 586.53 295.18 590.02C287.12 597.01 279.06 604 271 610.99C263.49 604.13 253.73 598.8 245.12 593.4C220.24 577.78 193.85 564.71 166.51 553.98C153.54 548.89 138.65 542.16 124.92 539.99C125.11 535.27 125.31 530.54 125.5 525.82C134.77 525.14 144.21 525.61 153.5 525.8C179.02 526.33 204.24 528.66 229.53 531.74C261.19 535.58 292.62 542.07 322.75 552.68C333.32 556.4 344.16 560.09 354.02 565.5C351.33 568.13 345.52 568.31 341.55 569.22C334.85 570.74 328.59 573.64 322 575.32ZM967.07 537.9C967.12 546.24 967.17 554.57 967.22 562.9C962.49 563.63 958.53 566.57 954.36 568.86C944.31 574.37 934.44 580.16 924.77 586.31C902.53 600.48 881.17 615.54 860.63 632.09C849.29 641.23 839.07 651.6 828.04 661.02C824.84 656.66 822.33 651.88 818.87 647.66C815.63 643.7 811.54 640.21 808.64 636.08C816.14 629.55 824.31 623.73 832.39 617.93C858.7 599.02 886.14 581.81 914.32 565.83C926.07 559.17 937.87 552.54 949.9 546.4C955.49 543.55 961.12 539.77 967.07 537.9ZM124.96 550.96C130.2 552.22 134.92 555.34 139.68 557.83C146.29 561.27 152.99 564.43 159.55 567.97C182.74 580.49 205.11 594.48 226.28 610.2C232.97 615.16 239.44 620.4 246.07 625.44C249.11 627.74 251.79 630.6 255.16 632.34C252.2 638.71 248.61 644.89 246.07 651.53C244.49 655.64 243.86 660.14 242.04 664.1C232.04 655.83 222.87 646.08 212.94 637.55C195.6 622.63 177.24 608.88 158.03 596.47C151.08 591.98 144.13 587.69 136.98 583.52C133.48 581.47 129.89 578.65 125.93 578.12C125.6 569.07 125.28 560.01 124.96 550.96ZM966 582.93C966.61 595.5 962.63 621.78 958.95 634C955.22 635.27 951.88 638.79 948.86 641.39C942.57 646.78 936.71 652.51 930.78 658.28C912.34 676.24 895.93 696.69 881.4 717.89C875.67 726.26 867.75 736.26 864 745.59C852.9 743.89 841.81 742.2 830.71 740.5C832.4 736.43 835.59 733.06 837.45 728.94C840.96 721.16 841.63 712.42 841.33 704C845.47 701.43 848.73 695.18 851.69 691.23C856.5 684.81 861.84 678.69 867.17 672.69C888.7 648.46 911.86 626.03 936.84 605.36C942.89 600.36 949.12 595.61 955.24 590.71C958.58 588.03 962.02 584.37 966 582.93ZM127.84 598.09C137.62 603.93 147.28 613.92 155.84 621.64C179.18 642.7 200.39 666.01 219.79 690.71C225.93 698.52 232.03 706.74 237.41 715.1C240.42 719.78 242.96 725.49 247.22 729.14C233 733.3 218.78 737.46 204.57 741.63C202.23 733.98 195.36 726.36 190.62 719.85C180.2 705.52 168.73 691.85 155.94 679.55C150.82 674.62 145.79 668.9 139.72 665.15C136.12 655.48 134.55 644.68 132.78 634.54C130.72 622.71 127.52 610.12 127.84 598.09ZM489.79 597.85C488.33 602.9 486.87 607.96 485.42 613.01C483.14 609.84 480.86 606.67 478.59 603.5C482.32 601.62 486.05 599.73 489.79 597.85ZM343.5 851.54C340.7 848.28 339.58 843.74 337.73 839.76C335.55 835.05 333 830.54 330.47 826.02C321.9 810.73 309.19 797.3 294.02 788.48C287.86 784.91 278.46 779.17 271.27 780.5C295.64 797.66 313.77 815.98 328.03 842.45C330.18 846.44 332.49 850.23 334.06 854.5C322.09 858.41 307.95 851.6 300.18 842.38C290.52 830.94 285.71 816.46 277.43 804.08C267.7 789.53 253.39 779.32 238.59 770.5C245.97 765.93 261.96 767 270.51 767.65C304.04 770.24 342.92 791.86 346.92 828.5C347.8 836.49 346.96 844.26 343.5 851.54ZM820.89 775.5C811.37 785.84 800.91 794.81 793.12 806.69C780.34 826.17 776.61 848.03 751.46 855.95C747.28 857.26 742.86 857.92 738.5 858.03C738.85 852.61 747.51 841.21 750.94 836.41C758.83 825.38 767.06 814.77 776.56 805.06C781.83 799.68 787.69 794.9 792.93 789.5C786.89 789.59 780.6 793.13 775.21 795.7C758.23 803.78 743.9 817.39 733.08 832.63C728.41 839.22 724.92 847.61 719.5 853.41C709.43 807.62 754.98 779.61 794.35 775.58C802.86 774.71 812.53 773.46 820.89 775.5Z" fill="#8d9e5f" fill-rule="evenodd" stroke="#8d9e5f" stroke-width="0.25" stroke-linejoin="round"/>
<path d="M549.5 148.99C554.94 152.33 554.95 159.75 555.68 165.56C557.7 181.52 557.95 198.47 556.68 214.5C556.16 221.08 556.01 233.68 546.48 233.05C537.99 232.48 538.19 220.55 538.01 214.5C537.52 197.89 537.27 180.92 539.68 164.46C540.7 157.51 540.94 149.41 549.5 148.99ZM681.5 176.18C686.09 181.3 681.63 189.51 679.56 195.07C673.57 211.12 666.82 226.84 658.15 241.65C655.09 246.87 649.27 256.85 641.85 253.59C634.98 250.58 641.03 236.37 642.83 231.39C648.33 216.13 655.92 201.04 665.25 187.74C669.24 182.06 673.91 175.13 681.5 176.18ZM414.5 177.74C421.89 174.87 427.16 182.22 430.6 187.9C439.28 202.19 446.78 217.61 451.91 233.55C453.81 239.46 459.46 251.16 450.88 254.4C443.43 257.21 438.24 246.25 435.37 241.15C427.39 226.97 421.25 211.55 416.48 196.03C414.79 190.57 411.26 182.97 414.5 177.74ZM304.7 241.29C311.12 239.77 317.1 246.23 321.53 249.97C334.31 260.75 346.87 272.08 357.29 285.23C361 289.93 370.24 298.83 364.24 304.75C357.85 311.05 350.14 303.57 345.2 299.32C331.34 287.41 318.81 273.29 307.53 258.95C304.42 255 294.64 243.69 304.7 241.29ZM783.74 241.32C785.96 240.77 788.36 240.72 790.15 242.36C794.75 246.57 789.15 253.32 786.44 256.91C774.94 272.14 760.54 286.14 746.17 298.65C742.01 302.27 733.98 310.39 728.21 305.29C721.92 299.74 731.49 290 735.1 285.64C745.24 273.4 756.73 262.62 768.76 252.28C773.1 248.55 777.97 242.74 783.74 241.32ZM785.4 451.5C773.77 452.93 762.13 454.37 750.5 455.8C714.67 391.4 653.09 340.26 578.44 330.31C552.74 326.89 526.77 328.71 501.45 333.75C479.45 338.13 457.62 345.76 437.82 356.35C407.03 372.82 379.3 395.63 356.62 422.15C351.7 427.9 346.94 433.91 342.57 440.1C338.98 445.18 335.94 451.07 331.59 455.5C323.05 454.5 314.51 453.5 305.97 452.5C305.43 443.88 308.28 434.53 310.69 426.28C314.43 413.5 318.8 401.12 324.56 389.09C354.21 327.17 404.08 284.45 469.44 263.87C507.72 251.82 544.19 246.22 584.3 252.39C616.3 257.33 648.23 268.8 675.92 285.58C731.36 319.19 777.67 386.86 785.4 451.5ZM310.97 371.5C306.13 377.65 298.18 373.77 292.12 371.43C276.3 365.32 260.73 358.1 246.18 349.35C242.45 347.11 228.8 339.89 231.85 334.4C235.24 328.31 248.08 333.72 253.04 335.47C268.84 341.03 284.98 348.23 298.98 357.5C304.38 361.08 311.5 364.26 310.97 371.5ZM856.66 335.5C856.22 341.84 849.14 345.47 844.18 348.66C830.67 357.36 816.49 364.95 801.59 370.99C795.35 373.52 785.71 378.62 780.93 371.5C780.67 364.48 787.09 361.43 792.33 357.84C805.61 348.72 820.85 341.17 835.87 335.41C841.88 333.1 852.73 328.27 856.66 335.5Z" fill="#f6c269" fill-rule="evenodd" stroke="#f6c269" stroke-width="0.25" stroke-linejoin="round"/>
<path d="M964.01 494.13C964.04 494.4 964.07 494.68 964.1 494.95C963.9 496.49 963.7 498.02 963.5 499.55C963.44 497.87 963.38 496.18 963.32 494.5C963.55 494.38 963.78 494.25 964.01 494.13ZM322 575.32C313.06 580.22 304.12 585.12 295.18 590.02C291.05 586.53 286.18 583.86 281.7 580.82C258.85 565.34 233.84 552.83 208.47 542.05C202.62 539.57 196.39 537.19 190.35 535.21C184.61 533.33 177.67 532.22 172.5 529.27C182.44 527.86 201.1 532.86 211.51 534.93C250.22 542.66 286.81 557.88 322 575.32ZM762 607.84C748.66 604.36 736.65 601.48 722.84 599.98C725.94 596.81 730.38 595.02 734.3 592.8C742.65 588.05 751.18 583.65 759.72 579.25C793.63 561.79 829.66 548.85 866.37 538.76C877.2 535.78 888.34 533.71 899.4 531.71C905.19 530.67 912.09 528.38 917.86 529.5C907.31 534.06 896.4 537.89 885.77 542.31C856.33 554.55 827.35 568.46 799.52 584.01C790.37 589.12 781.34 594.46 772.41 599.94C769.11 601.96 763.53 604.35 762 607.84ZM967.09 532.97C967.08 534.61 967.08 536.26 967.07 537.9C961.12 539.77 955.49 543.55 949.9 546.4C937.87 552.54 926.07 559.17 914.32 565.83C886.14 581.81 858.7 599.02 832.39 617.93C824.31 623.73 816.14 629.55 808.64 636.08C800.46 630.05 792.28 624.03 784.11 618C787.24 614.1 792.94 611.37 797.17 608.65C805.76 603.14 814.53 598.01 823.33 592.85C855.4 574.01 889.65 558.87 924.5 546.02C932.68 543 940.97 540.46 949.21 537.65C954.85 535.73 961.12 533.01 967.09 532.97ZM124.92 539.99C138.65 542.16 153.54 548.89 166.51 553.98C193.85 564.71 220.24 577.78 245.12 593.4C253.73 598.8 263.49 604.13 271 610.99C265.72 618.11 260.44 625.22 255.16 632.34C251.79 630.6 249.11 627.74 246.07 625.44C239.44 620.4 232.97 615.16 226.28 610.2C205.11 594.48 182.74 580.49 159.55 567.97C152.99 564.43 146.29 561.27 139.68 557.83C134.92 555.34 130.2 552.22 124.96 550.96C124.94 547.3 124.93 543.65 124.92 539.99ZM967.22 562.9C966.81 569.58 966.41 576.25 966 582.93C962.02 584.37 958.58 588.03 955.24 590.71C949.12 595.61 942.89 600.36 936.84 605.36C911.86 626.03 888.7 648.46 867.17 672.69C861.84 678.69 856.5 684.81 851.69 691.23C848.73 695.18 845.47 701.43 841.33 704C840.49 688.37 834.98 674.79 828.04 661.02C839.07 651.6 849.29 641.23 860.63 632.09C881.17 615.54 902.53 600.48 924.77 586.31C934.44 580.16 944.31 574.37 954.36 568.86C958.53 566.57 962.49 563.63 967.22 562.9ZM125.93 578.12C129.89 578.65 133.48 581.47 136.98 583.52C144.13 587.69 151.08 591.98 158.03 596.47C177.24 608.88 195.6 622.63 212.94 637.55C222.87 646.08 232.04 655.83 242.04 664.1C241.24 671.3 239.78 678.16 239.89 685.5C240.14 702.02 247.11 715.23 259.71 725.5C255.55 726.71 251.38 727.93 247.22 729.14C242.96 725.49 240.42 719.78 237.41 715.1C232.03 706.74 225.93 698.52 219.79 690.71C200.39 666.01 179.18 642.7 155.84 621.64C147.28 613.92 137.62 603.93 127.84 598.09C127.2 591.43 126.56 584.78 125.93 578.12ZM958.95 634C954.26 664.2 942.49 694.32 929.21 721.69C923.44 733.57 917.6 746.54 909.5 757.04C894.33 753.22 879.17 749.4 864 745.59C867.75 736.26 875.67 726.26 881.4 717.89C895.93 696.69 912.34 676.24 930.78 658.28C936.71 652.51 942.57 646.78 948.86 641.39C951.88 638.79 955.22 635.27 958.95 634ZM139.72 665.15C145.79 668.9 150.82 674.62 155.94 679.55C168.73 691.85 180.2 705.52 190.62 719.85C195.36 726.36 202.23 733.98 204.57 741.63C194.88 745.41 185.19 749.2 175.5 752.99C169.18 744.47 164.77 733.74 160.41 724.1C152.38 706.34 142.7 684.39 139.72 665.15ZM469.89 680.85C466.25 692.9 462.6 704.95 458.96 717C456.32 715.23 456.38 712.36 454.67 709.79C454.02 708.83 452.6 708.53 452.2 707.5C452.05 707.11 452.45 705.91 452.52 705.5C449.82 705.82 448.8 703.03 447.5 700.8C447.67 699.19 447.85 697.59 448.02 695.98C455.31 690.93 462.6 685.89 469.89 680.85ZM419.84 710.9C420.99 711.1 422.15 711.3 423.3 711.5C421.68 717.16 424.96 713.9 426.49 717.85C427.29 719.9 426.72 722.39 426.5 724.46C421.79 725.3 420.01 730.35 416.14 733C414.36 727.74 412.58 722.49 410.8 717.23C413.77 716.94 414.17 717.67 414.5 715C413.07 715.33 411.64 715.67 410.21 716C410.12 715.52 410.02 715.04 409.93 714.57C413.23 713.34 416.54 712.12 419.84 710.9ZM634.08 719.84C637.04 721.22 639.99 722.6 642.95 723.99C640.72 725.71 642.2 725.23 643.5 726.68C641.78 727.6 640.43 729.2 638.47 728.5C635.19 732.17 631.9 735.83 628.61 739.5C628.03 737.56 628.37 736 626.14 737C625.53 734 624.91 731 624.29 728C624.7 728.49 625.1 728.98 625.5 729.48C626.69 727.4 626.32 727.13 628.5 728C629.48 724.39 631.02 721.93 634.08 719.84Z" fill="#546939" fill-rule="evenodd" stroke="#546939" stroke-width="0.25" stroke-linejoin="round"/>
<path d="M508.95 374.36C506.96 374.22 504.97 374.08 502.98 373.94C505.75 373.8 508.52 373.65 511.28 373.5C510.51 373.79 509.73 374.07 508.95 374.36ZM474.05 381.88C473.87 382.28 473.68 382.67 473.5 383.07C472.22 383.3 470.94 383.52 469.66 383.75C471.13 383.13 472.59 382.51 474.05 381.88ZM407.01 440.03C407.37 440.73 407.73 441.43 408.08 442.12C407.22 443.01 406.36 443.9 405.5 444.79C405.4 442.29 405.16 441.86 407.01 440.03ZM530 467.27C532 467.24 534 467.2 536 467.17C535.83 467.4 535.67 467.64 535.5 467.87C533.83 467.92 532.17 467.96 530.5 468C530.33 467.76 530.17 467.52 530 467.27ZM560 467.17C561.67 467.21 563.33 467.24 565 467.28C564.83 467.52 564.67 467.76 564.5 468C563.17 467.96 561.83 467.92 560.5 467.89C560.33 467.65 560.17 467.41 560 467.17ZM547.5 478.45C548.83 489.9 550.17 501.35 551.5 512.81C560.89 509.65 566.16 497.72 569.7 489.24C571.03 486.05 572.03 482.29 574.18 479.83C577.14 479.83 580.09 479.83 583.04 479.83C582.69 491.85 578.39 503.99 572.62 514.5C583.97 514.57 598.59 499.41 605.92 491.4C608.21 488.9 610.13 485.74 612.5 483.54C614.94 483.54 617.37 483.54 619.81 483.54C617.32 498.47 603.16 512.91 591.34 521.5C596.59 522.63 604.3 518.96 609.45 516.9C627.68 509.61 637.06 502.53 651.5 489.76C654.4 490.18 656.83 490.5 658.83 492.5C648.54 512.31 625.85 522.78 605.63 529.5C612.42 530.14 619.82 528.47 626.54 527.23C642.68 524.26 658.3 520.05 672.92 512.42C678.38 509.56 683 504.77 688.5 502.27C690.06 503.01 691.61 503.76 693.17 504.5C690.9 512.29 681.37 518.19 674.67 522.16C655.68 533.41 634.84 535.56 613.8 540.5C623.29 542.83 634.95 541.32 644.63 540.4C660.69 538.89 676.74 536.94 692.37 532.74C699.3 530.88 706.43 526.87 713.5 526.2C716.04 534.45 700.69 539.93 694.58 542.16C671.05 550.76 645.39 550.39 620.73 551.5C628.08 556.68 639.75 557.5 648.5 558C652.8 558.25 657.68 557.46 661.42 559.5C650.36 564.08 636.38 565.72 624.5 564.79C619 564.36 606.53 561.79 602.18 562.5C604.74 565.83 607.3 569.17 609.86 572.5C604.94 573.75 599.53 574.11 594.46 574.72C593.02 574.89 589.89 574.47 588.89 575.72C588.24 576.54 588.56 579.18 588.5 580.23C587.84 573.94 585.54 567.69 584.25 561.44C582.19 551.46 581.12 539.32 574.19 531.29C563.52 518.94 536.46 520.88 522.36 524.75C516.93 526.24 511.67 527.99 507.62 532.13C504.68 535.14 504.36 539.11 503.52 543.05C501.81 551.04 499.66 568.35 495.61 574.5C487.3 574.46 477.48 575.04 469.58 572.5C472.67 569.17 475.77 565.83 478.87 562.5C472.34 561.39 464.24 564.16 457.5 564.76C445.51 565.82 430.5 564.79 419.5 559.49C423.07 557.18 428.11 558.13 432.5 557.94C440.74 557.57 451.07 556.9 458.24 552.5C449.83 551.31 441.01 551.58 432.5 550.87C417.39 549.62 401.99 546.92 387.72 541.74C381.42 539.45 368.25 535.51 368.5 527.53C371.5 526.34 373.66 527.78 376.67 528.73C382.89 530.7 389.08 532.73 395.45 534.22C411.87 538.05 428.62 540.81 445.5 541.17C451.94 541.31 458.77 542.27 465.02 540.5C445.35 536.92 424.77 533.62 407.41 523.04C401.26 519.29 392.84 514.49 390.15 507.5C391.93 506.5 393.72 505.5 395.5 504.5C402.87 508.57 409.5 513.7 417.2 517.33C429.02 522.89 441.71 525.83 454.5 528.03C460.92 529.14 468.22 530.86 474.65 529.5C457.74 524.19 433.48 511.91 426.34 494.5C428.73 493.78 431.11 493.06 433.5 492.33C435.92 494.16 437.92 496.35 440.2 498.32C449.77 506.57 460.53 513.67 472.37 518.15C477.82 520.2 484.15 523.1 489.98 522.5C478.5 513.56 465.46 501.71 463.5 486.3C465.83 485.78 468.17 485.26 470.5 484.74C474.11 488.57 476.85 493.18 480.43 497.07C488.49 505.81 500.02 514.5 511.93 516.5C505.7 503.74 498.41 497.02 498.48 481.18C501.44 481.18 504.41 481.18 507.38 481.18C511.6 493.19 520.64 510.75 534.5 513.23C535.41 501.64 536.32 490.04 537.23 478.45C540.65 478.45 544.08 478.45 547.5 478.45ZM312.92 616.94C312.29 616.63 311.65 616.31 311.02 616C312.51 614.97 314.01 613.95 315.5 612.92C314.64 614.26 313.78 615.6 312.92 616.94ZM445.56 650.5C438.45 663.47 423.22 667.93 412.26 676.5C421.83 676.74 438.64 668.29 447.61 664.14C451.56 662.31 455.62 658.51 459.96 658.5C461.09 662.38 454.44 666.13 451.46 667.98C440.98 674.5 429.71 678.78 418.01 682.5C426.71 685.12 436.18 680.27 445.06 680.5C439 685.64 430.81 687.78 423.24 689.63C420.01 690.41 416.34 690.56 413.96 692.5C417.26 693.83 420.56 695.17 423.86 696.5C418.07 698.72 412.29 700.94 406.5 703.16C403.38 697.11 402.72 689.85 397.88 684.64C389.73 675.85 370.14 680.45 360.67 685.18C356.71 687.16 351.06 690.45 349.21 694.69C346.49 700.92 349.09 708.83 346.48 715.07C345.23 718.07 337.26 722.05 338.5 715.4C332.47 716.43 328.11 720.87 321.44 720.5C326.05 716.83 330.67 713.17 335.28 709.5C332.25 709.61 329.48 711.07 326.56 712.16C315.9 716.15 303.01 722.87 291.36 720.5C298.63 716.77 308.43 716.85 314.88 711.5C307.41 711.55 300.03 713.72 292.5 713.85C288.97 713.91 285.37 714.05 283.18 711.5C296.51 708.31 311.08 709.43 324.02 704.5C315.72 703.54 306.9 705.06 298.5 704.97C294.4 704.92 289.79 705.14 286.79 702.5C290.18 698.88 294.88 700.29 299.5 700.29C309.47 700.29 319.01 699.18 328.82 697.5C321.24 695.48 303.69 696.88 298.31 691.5C299.54 690.49 300.9 689.22 302.53 688.92C305.11 688.46 307.97 689.39 310.53 689.72C317.42 690.62 331.28 693.05 337.1 689.5C330.28 687.52 322.11 685.73 317.02 680.5C318.61 679.59 320.65 678.14 322.53 677.98C325.4 677.73 328.09 679.8 330.69 680.77C335.41 682.52 342.05 684.02 346.76 682.5C342.81 679.46 338.2 676.17 336.27 671.5C338.68 670.71 341.09 669.92 343.5 669.12C348.06 673.53 353.2 676.99 359.5 678.23C358.48 673.32 357.46 668.41 356.45 663.5C359.32 662.83 362.2 662.17 365.07 661.5C367.6 665.71 368.25 671.44 372.5 674.19C377.75 669.87 377.95 663.61 379.7 657.5C382.55 656.83 385.39 656.17 388.24 655.5C388.24 660.71 388.24 665.91 388.24 671.12C391.15 668.77 394.74 666.85 397.46 663.96C403.33 657.69 405.75 648.99 415.84 651.5C412.22 660.54 406.17 666.53 399.71 673.5C408.12 671.99 423.84 660.96 431.28 655.8C436.01 652.52 439.54 647.97 445.56 650.5ZM682.05 697.5C677.55 691.73 673.47 686.75 672.26 679.3C675.01 679.3 677.75 679.3 680.5 679.3C683.66 687.17 688.8 691.82 695.21 697.04C695.21 691.97 695.21 686.91 695.21 681.85C697.68 681.85 700.15 681.85 702.62 681.85C704.07 687.96 704.42 694.57 709.5 698.89C713.27 695.62 714.8 690.22 716.5 685.65C719.2 685.65 721.9 685.65 724.59 685.65C723.38 690.93 722.17 696.22 720.96 701.5C728.05 701.65 732.63 695.34 737.5 691.06C739.95 691.87 742.4 692.69 744.85 693.5C742.03 698.61 737.04 701.36 733.15 705.5C739.27 706.53 745.69 704.08 751.35 701.82C756.04 699.94 760.19 697.32 764.52 701.5C758.78 707.44 749.91 709.7 742.11 711.5C748.31 713.93 761.33 711.77 768.24 710.59C773.92 709.63 778.28 706.93 782.88 711.5C771.34 717.29 760.72 716.65 748.5 718.54C756.01 722.34 770.99 721.37 779.5 721.38C783.52 721.39 788.81 720.08 792.01 722.5C781.21 727.91 768.68 723.93 757.5 726.5C770.43 728.5 783.37 730.5 796.3 732.5C783.6 739.47 764.14 728.71 752.05 730.5C760.65 734.75 769.8 736.83 778.94 739.5C775.54 741.4 771.28 740.44 767.5 739.92C758.03 738.62 749.51 733.98 740.24 732.5C741.73 735.17 743.23 737.83 744.73 740.5C739.99 739.75 735.24 739 730.5 738.24C729.16 731.7 732.24 723.72 729 717.53C723.66 707.3 698.43 701.8 689.06 707.55C684.26 710.49 679.91 719.61 676.5 724.29C670.07 722.36 663.64 720.43 657.21 718.5C661.59 717.73 665.88 717.23 669.44 714.5C656.96 711.66 638.1 711.07 628.5 701.39C639.87 701.78 650.55 707.02 662.17 706.5C652.93 702.37 643.42 699.12 634.91 693.57C631.48 691.34 627.83 689.56 627.14 685.5C632.4 683.85 636.58 688 641.13 690.38C649.23 694.63 660.09 699.98 669.27 700.5C661.22 695.22 650.4 688.7 646.57 679.5C648.83 679.03 650.91 678.49 653.2 679.38C655.04 680.11 656.57 682.2 658.14 683.38C663.68 687.55 675.39 697.2 682.05 697.5ZM795.03 743.14C794.35 743.71 793.68 744.28 793 744.85C792.29 744.92 791.58 744.98 790.87 745.05C792.22 743.34 792.78 743.29 795.03 743.14Z" fill="#cab699" fill-rule="evenodd" stroke="#cab699" stroke-width="0.25" stroke-linejoin="round"/>
</svg>